<?xml version="1.0" encoding="UTF-8" standalone="no"?>
<svg width="15px" height="17px" viewBox="0 0 15 17" version="1.1" xmlns="http://www.w3.org/2000/svg" xmlns:xlink="http://www.w3.org/1999/xlink">
    <!-- Generator: Sketch 39.1 (31720) - http://www.bohemiancoding.com/sketch -->
    <title>贷款综合查询</title>
    <desc>Created with Sketch.</desc>
    <defs>
        <path d="M4,4.5 C4,4.22385763 4.21484375,4 4.49769878,4 L8.50230122,4 C8.77717266,4 9,4.23193359 9,4.5 C9,4.77614237 8.78515625,5 8.50230122,5 L4.49769878,5 C4.22282734,5 4,4.76806641 4,4.5 Z M4,6.5 C4,6.22385763 4.21799347,6 4.50982053,6 L11.6402039,6 C11.92177,6 12.1500244,6.23193359 12.1500244,6.5 C12.1500244,6.77614237 11.9320309,7 11.6402039,7 L4.50982053,7 C4.22825443,7 4,6.76806641 4,6.5 Z M4,8.5 C4,8.22385763 4.21799347,8 4.50982053,8 L11.6402039,8 C11.92177,8 12.1500244,8.23193359 12.1500244,8.5 C12.1500244,8.77614237 11.9320309,9 11.6402039,9 L4.50982053,9 C4.22825443,9 4,8.76806641 4,8.5 Z M4,10.5 C4,10.2238576 4.2157526,10 4.49538898,10 L6.50461102,10 C6.7782068,10 7,10.2319336 7,10.5 C7,10.7761424 6.7842474,11 6.50461102,11 L4.49538898,11 C4.2217932,11 4,10.7680664 4,10.5 Z" id="path-1"></path>
        <mask id="mask-2" maskContentUnits="userSpaceOnUse" maskUnits="objectBoundingBox" x="0" y="0" width="8.15002441" height="7" fill="white">
            <use xlink:href="#path-1"></use>
        </mask>
    </defs>
    <g id="审批管理" stroke="none" stroke-width="1" fill="none" fill-rule="evenodd">
        <g id="审批系统－欺诈信息管理" transform="translate(-23.000000, -111.000000)" stroke="#FFFFFF">
            <g id="侧边导航" transform="translate(0.000000, 60.000000)">
                <g id="贷款综合查询" transform="translate(22.000000, 50.000000)">
                    <g>
                        <use id="Combined-Shape" mask="url(#mask-2)" stroke-width="2" xlink:href="#path-1"></use>
                        <path d="M1.5,1.5 L1.5,17.5" id="Line" stroke-linecap="square"></path>
                        <path d="M1.5,17.5 L7.5,17.5" id="Line" stroke-linecap="square"></path>
                        <path d="M1.5,1.5 L14.5,1.5" id="Line" stroke-linecap="square"></path>
                        <path d="M14.5,1.5 L14.5,9.5" id="Line" stroke-linecap="square"></path>
                        <g id="Group-13" transform="translate(9.000000, 11.000000)">
                            <circle id="Oval-2" cx="2.5" cy="2.5" r="2.5"></circle>
                            <path d="M4.5,4.5 L6.5,6.5" id="Line" stroke-linecap="square"></path>
                        </g>
                    </g>
                </g>
            </g>
        </g>
    </g>
</svg>