<?xml version="1.0" encoding="UTF-8" standalone="no"?>
<svg width="12px" height="14px" viewBox="0 0 12 14" version="1.1" xmlns="http://www.w3.org/2000/svg" xmlns:xlink="http://www.w3.org/1999/xlink">
    <!-- Generator: Sketch 39.1 (31720) - http://www.bohemiancoding.com/sketch -->
    <title>Fill 1</title>
    <desc>Created with Sketch.</desc>
    <defs></defs>
    <g id="登录页面" stroke="none" stroke-width="1" fill="none" fill-rule="evenodd">
        <g id="3确定用这个" transform="translate(-745.000000, -501.000000)" fill="white">
            <g id="登录" transform="translate(733.000000, 169.000000)">
                <g id="输入框" transform="translate(12.000000, 279.000000)">
                    <g id="Group-2">
                        <path d="M5.60231376,60.8747128 C5.12656637,60.8747128 4.7405961,61.2670221 4.7405961,61.7503764 C4.7405961,62.074303 4.91404897,62.3568671 5.17157379,62.5082125 L5.17157379,63.9379903 C5.17157379,64.1793505 5.36444007,64.3748316 5.60231376,64.3748316 C5.84050441,64.3748316 6.03337069,64.1793505 6.03337069,63.9379903 L6.03337069,62.508054 C6.29097475,62.3567879 6.46434838,62.074303 6.46434838,61.7503764 C6.46434838,61.2670221 6.07845734,60.8747128 5.60231376,60.8747128 L5.60231376,60.8747128 Z M10.3429099,65.2498613 C10.3429099,65.7325817 9.95630568,66.124891 9.4811922,66.124891 L1.72375228,66.124891 C1.2486388,66.124891 0.861717662,65.7325817 0.861717662,65.2498613 L0.861717662,60.000317 C0.861717662,59.5176758 1.2486388,59.1252872 1.72375228,59.1252872 L9.4811922,59.1252872 C9.95630568,59.1252872 10.3429099,59.5176758 10.3429099,60.000317 L10.3429099,65.2498613 Z M3.01652687,56.5801496 C3.01652687,55.0891206 4.02079442,53.8750297 5.58654532,53.8750297 C7.13605234,53.8750297 8.18810066,55.0632096 8.18810066,56.5801496 L8.18810066,58.2502575 L3.01652687,58.2502575 L3.01652687,56.5801496 Z M9.4811922,58.2502575 L9.05013527,58.2502575 L9.05013527,56.5801496 C9.05013527,54.5723277 7.61940662,53 5.58654532,53 C3.5456017,53 2.15480921,54.6058455 2.15480921,56.5801496 L2.15480921,58.2502575 L1.72375228,58.2502575 C0.773208363,58.2502575 0,59.0350347 0,60.000317 L0,65.2498613 C0,66.2151436 0.773208363,67 1.72375228,67 L9.4811922,67 C10.4318154,67 11.2050237,66.2151436 11.2050237,65.2498613 L11.2050237,60.000317 C11.2050237,59.0350347 10.4318154,58.2502575 9.4811922,58.2502575 L9.4811922,58.2502575 Z" id="Fill-1"></path>
                    </g>
                </g>
            </g>
        </g>
    </g>
</svg>