<?xml version="1.0" encoding="UTF-8" standalone="no"?>
<svg width="12px" height="13px" viewBox="0 0 12 13" version="1.1" xmlns="http://www.w3.org/2000/svg" xmlns:xlink="http://www.w3.org/1999/xlink">
    <!-- Generator: Sketch 39.1 (31720) - http://www.bohemiancoding.com/sketch -->
    <title>Fill 1</title>
    <desc>Created with Sketch.</desc>
    <defs></defs>
    <g id="登录页面" stroke="none" stroke-width="1" fill="none" fill-rule="evenodd">
        <g id="3确定用这个" transform="translate(-777.000000, -451.000000)" fill="white">
            <g id="登录" transform="translate(733.000000, 169.000000)">
                <g id="输入框" transform="translate(44.000000, 279.000000)">
                    <g id="Group-2">
                        <path d="M7.76436669,10.0779896 C9.75674547,10.9215542 11.1528723,12.8822857 11.1528723,15.1665724 L10.0374365,15.1665724 C10.0374365,12.7236559 8.04009991,10.7426656 5.57637901,10.7426656 C3.1126581,10.7426656 1.11543584,12.7236559 1.11543584,15.1665724 L-2.13162821e-14,15.1665724 C-2.13162821e-14,12.8822165 1.39614752,10.9214354 3.38859057,10.0779129 C2.35357886,9.38181034 1.6737253,8.20554535 1.6737253,6.87167573 C1.6737253,4.73305213 3.42106617,3 5.57637901,3 C7.73180615,3 9.47971857,4.73316644 9.47971857,6.87167573 C9.47971857,8.20564632 8.7996123,9.38191628 7.76436669,10.0779896 Z M5.57637901,9.63614593 C7.11613313,9.63614593 8.36451135,8.39794128 8.36451135,6.87098987 C8.36451135,5.3434669 7.11613313,4.1058338 5.57637901,4.1058338 C4.03662489,4.1058338 2.78824666,5.34415276 2.78824666,6.87098987 C2.78824666,8.39862714 4.03662489,9.63614593 5.57637901,9.63614593 Z" id="Fill-1"></path>
                    </g>
                </g>
            </g>
        </g>
    </g>
</svg>